<svg width="22" height="22" viewBox="0 0 256 255" fill="none" xmlns="http://www.w3.org/2000/svg">
<path d="M126.9 0c-63.4 0-59.4 27.5-59.4 27.5l.1 28.5h60.4v8.6H40.4S0 60.6 0 125.6c0 65 35.2 62.8 35.2 62.8h20.9v-29.4s-1.1-35.2 34.7-35.2h60.3s33.7.5 33.7-32.4V33.5S189.5 0 126.9 0zm-33 19.6c6.2 0 11.3 5 11.3 11.2 0 6.2-5 11.3-11.3 11.3-6.2 0-11.2-5-11.2-11.3-.1-6.2 5-11.2 11.2-11.2z" 
fill="#00eaff" fill-opacity="0.85"/>
<path d="M128.9 254.5c63.4 0 59.4-27.5 59.4-27.5l-.1-28.5h-60.4v-8.6h87.7s40.4 3.9 40.4-61.1c0-65-35.2-62.8-35.2-62.8h-20.9v29.4s1.1 35.2-34.7 35.2h-60.3s-33.7-.5-33.7 32.4v57s-5.3 34.1 57.8 34.1zm33-19.6c-6.2 0-11.3-5-11.3-11.2 0-6.2 5-11.3 11.3-11.3 6.2 0 11.2 5 11.2 11.3 0 6.2-5 11.2-11.2 11.2z" 
fill="#00eaff" fill-opacity="0.85"/>
</svg>
